<?xml version="1.0" encoding="iso-8859-1"?>
<!-- Generator: Adobe Illustrator 19.0.0, SVG Export Plug-In . SVG Version: 6.00 Build 0)  -->
<svg version="1.1" id="Capa_1" xmlns="http://www.w3.org/2000/svg" xmlns:xlink="http://www.w3.org/1999/xlink" x="0px" y="0px"
	 viewBox="0 0 477.377 477.377" style="enable-background:new 0 0 477.377 477.377;" xml:space="preserve">
<g>
	<g>
		<path d="M452.158,25.125c-42.086-42.103-125.577-29.542-213.47,24.61C150.795-4.4,67.305-16.961,25.219,25.125
			C-16.868,67.212-4.307,150.702,49.846,238.578c-54.153,87.893-66.714,171.383-24.627,213.47
			c18.714,17.41,43.678,26.503,69.205,25.207c51.656-3.434,101.459-20.597,144.265-49.715
			c42.805,29.119,92.608,46.281,144.265,49.715c25.527,1.295,50.491-7.798,69.205-25.207
			c42.086-42.086,29.525-125.577-24.627-213.47C481.684,150.702,494.245,67.212,452.158,25.125z M382.202,33.778
			c16.728-1.139,33.22,4.438,45.824,15.497c25.975,25.975,19.302,86.904-21.282,158.123c-19.011-26.253-40.093-50.942-63.044-73.83
			c-22.904-22.992-47.616-44.108-73.899-63.147C303.646,49.066,342.274,36.473,382.202,33.778z M49.351,49.257
			c12.606-11.052,29.098-16.623,45.824-15.479c39.934,2.729,78.561,15.35,112.401,36.727
			c-52.565,38.149-98.781,84.354-136.943,136.909C30.048,136.178,23.375,75.25,49.351,49.257z M49.351,427.916
			c-25.975-25.993-19.302-86.938,21.282-158.14c19.011,26.253,40.093,50.942,63.044,73.83
			c22.877,22.951,47.554,44.033,73.796,63.044C136.288,447.235,75.326,453.908,49.351,427.916z M157.81,319.423
			c-24.976-24.808-47.606-51.871-67.601-80.845c40.304-57.9,90.58-108.176,148.48-148.48c28.985,20.026,56.059,42.684,80.879,67.686
			c24.97,24.795,47.6,51.841,67.601,80.794c-20.008,28.993-42.656,56.074-67.652,80.896c-24.806,24.967-51.863,47.591-80.828,67.584
			C209.704,367.051,182.629,344.41,157.81,319.423z M428.026,427.916c-25.993,26.01-86.938,19.319-158.123-21.265
			c26.242-19.011,50.92-40.094,73.796-63.044c22.951-22.888,44.034-47.577,63.044-73.83
			C447.328,340.978,454.001,401.923,428.026,427.916z"/>
	</g>
</g>
<g>
	<g>
		<circle cx="238.688" cy="238.578" r="68.267"/>
	</g>
</g>
<g>
</g>
<g>
</g>
<g>
</g>
<g>
</g>
<g>
</g>
<g>
</g>
<g>
</g>
<g>
</g>
<g>
</g>
<g>
</g>
<g>
</g>
<g>
</g>
<g>
</g>
<g>
</g>
<g>
</g>
</svg>
